<svg xmlns="http://www.w3.org/2000/svg" width="1478" height="732" viewBox="0 0 1478 732">
  <defs>
    <style>
      .cls-1 {
        fill: #fff;
      }

      .cls-1, .cls-2 {
        fill-rule: evenodd;
      }

      .cls-2 {
        fill: #ff7800;
      }
    </style>
  </defs>
  <path id="اخْبَارُك" class="cls-1" d="M323.21,579.368q68.475,0,112.5-31.246t54.888-93.192q4.344-26.084,7.065-91.835t2.717-142.37q0-51.071-.543-76.076-19.565,1.63-42.389,11.955a151.052,151.052,0,0,0-39.129,25q-16.3,14.672-17.39,27.714-1.1,8.7.543,23.094t5.435,35.321q3.8,20.925,4.891,26.355,7.6,35.863,11.684,61.947a320.918,320.918,0,0,1,4.076,49.449l-0.544,12.5q-1.1,11.959-13.042,23.638t-33.694,19.019q-21.743,7.337-50.541,7.336-46.2,0-68.2-18.475t-22.01-45.1a95.9,95.9,0,0,1,4.347-27.17,106.88,106.88,0,0,1,11.413-26.083q-2.726-2.714-8.695-2.717-13.044,0-28.8,10.052t-26.629,33.963q-10.878,23.917-9.239,61.947,1.63,41.85,23.912,70.1T259.9,566.054q31.793,13.323,63.312,13.314h0ZM283.538,379.941a55.219,55.219,0,0,0,8.424,24.453q6.789,10.327,14.4,14.671c1.444,0.73,3.8,1.087,7.065,1.087q11.947,0,36.411-3.8,33.69-4.343,44.563-3.8,1.083-11.41-3.26-27.441t-11.956-18.2a22.314,22.314,0,0,0-7.065-1.087q-3.808,0-13.043,2.174a28.848,28.848,0,0,1-6.521.543,22.16,22.16,0,0,1-13.858-4.347q-5.708-4.343-5.707-9.781t5.707-8.966q5.706-3.528,14.945-3.532,9.782,0,21.738,4.89-4.892-22.275-12.228-32.6t-23.1-12.5q-17.934-2.712-33.422,8.423t-15.488,29.072q0,14.671,8.151,24.724a38.463,38.463,0,0,0,19.565,13.314q-25.551,2.726-35.325,2.717h0ZM505.79,262.019q4.891-1.082,14.674-2.173,23.919-3.8,35.867-6.793a94.673,94.673,0,0,0,22.825-8.966q13.044-5.973,19.021-14.672a31.253,31.253,0,0,0,5.978-17.932,26.857,26.857,0,0,0-5.434-16.845q-4.357-5.973-13.315-9.509a50.759,50.759,0,0,0-18.749-3.533q-14.673,0-23.368,7.065a20.9,20.9,0,0,0-6.25,7.335,20.105,20.105,0,0,0-2.446,9.51,18.009,18.009,0,0,0,4.348,11.411q8.151,9.781,21.738,8.695l0.543,0.543q-10.864,5.986-36.411,11.955-9.234,2.178-14.673,6.792a14.161,14.161,0,0,0-5.434,11.14,13.576,13.576,0,0,0,1.086,5.977h0Zm54.889-61.4a6.646,6.646,0,0,1,4.891-1.63,15.148,15.148,0,0,1,9.239,3.261q4.342,3.807,4.347,7.064a3.124,3.124,0,0,1-1.087,2.173,9.59,9.59,0,0,1-4.347,1.087,20.171,20.171,0,0,1-10.326-3.26q-3.808-2.166-3.8-5.978a3.677,3.677,0,0,1,1.087-2.717h0ZM539.5,729.346q43.471,0,69.833-30.7t37.227-76.62a415.234,415.234,0,0,0,10.869-95.909q0-23.358-1.087-33.691a367.483,367.483,0,0,0-17.39-84.77Q625.36,366.9,607.43,336.74t-34.237-45.373q-8.7,6.52-20.651,26.083a262.311,262.311,0,0,0-20.923,42.928q-8.967,23.372-8.967,42.385,0,24.453,15.76,34.778,21.73,14.671,30.7,21.736t16.847,20.105q7.872,13.042,7.88,32.061,0,48.906-28.8,84.227t-97.277,35.321a256.135,256.135,0,0,1-28.26-1.631,198.125,198.125,0,0,0,38.585,68.74q26.621,31.242,61.41,31.246h0ZM779.157,467.971q-19.029,0-30.162-14.943t-12.771-35.05q-1.1-11.946-1.087-17.932a283.335,283.335,0,0,1,2.446-36.679q2.445-18.747,7.336-49.178,0.535-4.89,4.891-33.69a352.685,352.685,0,0,0,4.348-52.166,158.238,158.238,0,0,0-3.261-33.148q-4.356-19.561-30.705-33.69a148.237,148.237,0,0,0-57.877-16.846q-0.548,25-.544,76.076,0,76.618,2.718,142.37t7.065,91.835Q682.419,519.6,711.5,549.481t67.66,29.887h0C773.957,576.618,773,538,773,519S774.985,469.221,779.157,467.971Zm14.664-218.994a512.941,512.941,0,0,0,52.987-8.966A418.632,418.632,0,0,0,895.447,226.7q9.781-3.261,14.673-9.781a22.344,22.344,0,0,0,4.891-13.585,29.987,29.987,0,0,0-1.087-6.521q-58.158,17.932-98.908,24.453Q793.286,226.7,793.278,243a26.088,26.088,0,0,0,.543,5.977h0Zm187.5,218.994q-28.81,0-45.921-17.932T918.28,403.307l0.544-21.193a343.013,343.013,0,0,0-2.174-40.755q-20.66,0-45.378,5.978-24.737,5.985-31.249,19.562a24.255,24.255,0,0,0-2.717,11.955,34.751,34.751,0,0,0,2.445,12.77,155.543,155.543,0,0,0,7.337,15.487q8.153,14.136,8.152,21.192,0,9.246-10.326,18.476-10.329,9.246-27.987,15.215a116.957,116.957,0,0,1-37.77,5.977c-3.766,0-6.074,26.461-6.157,54.029-0.084,28.125,2.134,57.368,6.157,57.368h0q73.9,0,110.32-63.578,11.414,32.6,37.77,48.091t54.073,15.487M800.351,658.16q2.166,13.043,20.108,30.431T854.7,713.044q50.541-42.933,51.085-54.884,0.534-4.355-4.891-10.324a145.86,145.86,0,0,0-16.3-14.672Q862.3,613.6,854.7,603.277a422.627,422.627,0,0,0-36.954,30.7Q799.261,651.1,800.351,658.16h0ZM1171.53,139.216q15.75,0,25.81-10.6t10.05-24.181a45.342,45.342,0,0,0-10.32-28.8Q1186.735,62.6,1171.53,62.6a35.161,35.161,0,0,0-25.82,10.6,34.516,34.516,0,0,0-10.6,25.268q0,17.4,10.06,29.071,10.065,11.693,26.36,11.683h0Zm-14.68-38.037c0-2.531,1.55-5.069,4.62-7.608a17.819,17.819,0,0,1,11.69-3.8,19.528,19.528,0,0,1,10.05,2.717c3.07,1.817,4.62,3.8,4.62,5.977q0,4.891-4.89,8.966a17.293,17.293,0,0,1-11.41,4.075,17.758,17.758,0,0,1-10.33-2.989c-2.89-1.986-4.35-4.432-4.35-7.335h0ZM981.319,579.368h0q38.582,0,75.811-16.846t90.48-50.536q36.405-22.822,61.14-36.407a317.55,317.55,0,0,1,52.45-22.823,174.409,174.409,0,0,1,55.43-9.238,156.826,156.826,0,0,1,27.17,2.717q1.635-3.8,7.88-18.747t12.77-33.419q6.525-18.467,6.52-30.43,0-14.124-10.32-14.129-44.565,0-76.63-7.879t-73.91-23.638q-22.815-8.685-38.58-13.856a342.205,342.205,0,0,0-33.15-8.966,160.743,160.743,0,0,0-31.52-3.261q-45.12,0-72.55,26.9-27.45,26.9-27.45,72a155.318,155.318,0,0,0,5.98,42.385q46.185-29.879,96.73-29.887,31.515,0,73.37,11.954v1.631q-15.765,2.178-59.78,17.932-45.12,15.766-77.71,24.453a248.152,248.152,0,0,1-64.131,8.694M1115.55,221.812q2.16,13.041,20.11,30.43,17.925,17.4,34.24,24.453,50.535-42.919,51.08-54.883,0.54-4.344-4.89-10.325a148.214,148.214,0,0,0-16.3-14.672q-22.29-19.561-29.89-29.886a423.785,423.785,0,0,0-36.96,30.7q-18.48,17.117-17.39,24.181h0Zm273.9,356.469q55.425,0,75.54-92.378,13.035-60.852,13.04-195.623,0-35.316-1.09-90.748l-0.54-55.426q-9.24,0-33.15,11.14a251.574,251.574,0,0,0-44.02,26.083q-20.115,14.952-22.28,27.441-1.635,10.329-1.63,30.431,0,36.411,5.98,133.132,3.255,48.37,5.7,99.985,2.445,51.631,2.45,88.574v17.389Z"/>
  <path class="cls-1" d="M768,467s-0.05,1,12.167,1c15.409,0,21.833-2,21.833-2l16,108s-25.355,5-41,5c-11.807,0-29-5-29-5Z"/>
  <path id="اخْبَارُك_copy" data-name="اخْبَارُك copy" class="cls-2" d="M800.351,658.16q2.166,13.043,20.108,30.431T854.7,713.044q50.541-42.933,51.085-54.884,0.534-4.355-4.891-10.324a145.86,145.86,0,0,0-16.3-14.672Q862.3,613.6,854.7,603.277a422.627,422.627,0,0,0-36.954,30.7Q799.261,651.1,800.351,658.16h0Zm315.2-436.348q2.16,13.041,20.11,30.43,17.925,17.4,34.24,24.453,50.535-42.919,51.08-54.883,0.54-4.344-4.89-10.325a148.214,148.214,0,0,0-16.3-14.672q-22.29-19.561-29.89-29.886a423.785,423.785,0,0,0-36.96,30.7q-18.48,17.117-17.39,24.181h0Z"/>
  <path id="Wifi_Icon_01_-_Shapes4FREE.com1" data-name="Wifi Icon 01 - Shapes4FREE.com1" class="cls-2" d="M118.111,70.05c66.321-52.795,149.022-76.588,232.873-67a31.727,31.727,0,0,1-7.275,63.036c-67.061-7.666-133.215,11.373-186.286,53.62A252.728,252.728,0,0,0,63.088,289.478,31.642,31.642,0,1,1,.215,282.284,315.907,315.907,0,0,1,118.111,70.05Zm218.316,59.076a31.727,31.727,0,0,1-7.275,63.035c-69.343-7.925-132.282,42.178-140.315,111.7a31.642,31.642,0,1,1-62.873-7.194C138.01,192.391,232.419,117.237,336.427,129.126Z"/>
</svg>
